<?xml version="1.0" encoding="UTF-8"?>
<svg width="8394px" height="3110px" viewBox="0 0 8394 3110" version="1.1" xmlns="http://www.w3.org/2000/svg" xmlns:xlink="http://www.w3.org/1999/xlink">
    <!-- Generator: Sketch 61.2 (89653) - https://sketch.com -->
    <title>wave</title>
    <desc>Created with Sketch.</desc>
    <defs>
        <path d="M4197,3097 L839.4,3097 L839.4,24.7194983 C907.334839,146.711828 1047.23484,165.973774 1259.1,82.5053384 C1470.96516,-0.963097336 1610.86516,-20.2250441 1678.8,24.7194983 C1746.73484,146.711828 1886.63484,165.973774 2098.5,82.5053384 C2310.36516,-0.963097336 2450.26516,-20.2250441 2518.2,24.7194983 C2586.13484,146.711828 2726.03484,165.973774 2937.9,82.5053384 C3149.76516,-0.963097336 3289.66516,-20.2250441 3357.6,24.7194983 C3425.53484,146.711828 3565.43484,165.973774 3777.3,82.5053384 C3989.16516,-0.963097336 4129.06516,-20.2250441 4197,24.7194983 L4197,24.7194983 L4197,23.5958847 C4264.93484,145.588214 4404.83484,164.850161 4616.7,81.3817249 C4828.56516,-2.08671089 4968.46516,-21.3486576 5036.4,23.5958847 L5036.4,23.5958847 L5036.4,24.7194983 C5104.33484,146.711828 5244.23484,165.973774 5456.1,82.5053384 C5667.96516,-0.963097336 5807.86516,-20.2250441 5875.8,24.7194983 L5875.8,24.7194983 L5875.8,3097 L5036.4,3097 L5036.4,3095.87639 L4197,3095.87639 L4197,3097 Z M7134.9,82.5053384 C7346.76516,-0.963097336 7486.66516,-20.2250441 7554.6,24.7194983 L7554.6,24.7194983 L7554.6,3097 L5875.8,3097 L5875.8,24.7194983 C5943.73484,146.711828 6083.63484,165.973774 6295.5,82.5053384 C6507.36516,-0.963097336 6647.26516,-20.2250441 6715.2,24.7194983 L6715.2,24.7194983 C6783.13638,146.71204 6923.03601,165.973314 7134.9,82.5053384 Z M7974.3,82.5053384 C8186.16516,-0.963097336 8326.06516,-20.2250441 8394,24.7194983 L8394,24.7194983 L8394,3097 L7554.6,3097 L7554.6,24.7194983 C7622.53484,146.711828 7762.43484,165.973774 7974.3,82.5053384 Z M419.7,81.3817249 C631.565161,-2.08671089 771.465161,-21.3486576 839.4,23.5958847 L839.4,23.5958847 L839.4,3095.87639 L-3.63797881e-12,3095.87639 L-3.63797881e-12,23.5958847 C67.9348389,145.588214 207.834839,164.850161 419.7,81.3817249 Z" id="path-1"></path>
        <filter x="-0.3%" y="-0.7%" width="100.6%" height="101.5%" filterUnits="objectBoundingBox" id="filter-2">
            <feMorphology radius="2.5" operator="dilate" in="SourceAlpha" result="shadowSpreadOuter1"></feMorphology>
            <feOffset dx="0" dy="2" in="shadowSpreadOuter1" result="shadowOffsetOuter1"></feOffset>
            <feGaussianBlur stdDeviation="5" in="shadowOffsetOuter1" result="shadowBlurOuter1"></feGaussianBlur>
            <feColorMatrix values="0 0 0 0 0   0 0 0 0 0   0 0 0 0 0  0 0 0 0.111532998 0" type="matrix" in="shadowBlurOuter1"></feColorMatrix>
        </filter>
    </defs>
    <g id="Page-1" stroke="none" stroke-width="1" fill="none" fill-rule="evenodd">
        <g id="ALL---Wave-Large" transform="translate(0.000000, -86.000000)">
            <g id="wave" transform="translate(0.000000, 99.000000)">
                <g id="Combined-Shape">
                    <use fill="black" fill-opacity="1" filter="url(#filter-2)" xlink:href="#path-1"></use>
                    <use fill="#1B998F" fill-rule="evenodd" xlink:href="#path-1"></use>
                </g>
            </g>
        </g>
    </g>
</svg>