<?xml version="1.0" encoding="UTF-8"?>
<svg width="136px" height="46px" viewBox="0 0 136 46" version="1.1" xmlns="http://www.w3.org/2000/svg" xmlns:xlink="http://www.w3.org/1999/xlink">
    <!-- Generator: Sketch 61.2 (89653) - https://sketch.com -->
    <title>Path</title>
    <desc>Created with Sketch.</desc>
    <g id="Page-1" stroke="none" stroke-width="1" fill="none" fill-rule="evenodd">
        <g id="wave-loader-2" stroke="#000000" stroke-width="4">
            <path d="M0,2.5 C17.0400627,2.5 17.0400627,43.5 34.0833333,43.5 C51.1266039,43.5 51.1225941,2.5 68.1666667,2.5 C85.2107392,2.5 85.2091353,43.5 102.25,43.5 C119.290865,43.5 119.290063,2.5 136.333333,2.5 C153.376604,2.5 153.375802,43.5 170.416667,43.5 C187.457531,43.5 187.457531,2.5 204.5,2.5 C221.542469,2.5 221.540063,43.5 238.583333,43.5 C255.626604,43.5 255.622594,2.5 272.666667,2.5 C289.710739,2.5 289.709135,43.5 306.75,43.5 C323.790865,43.5 323.790063,2.5 340.833333,2.5 C357.876604,2.5 357.875802,43.5 374.916667,43.5 C391.957531,43.5 391.957531,2.5 409,2.5" id="Path"></path>
        </g>
    </g>
</svg>